<?xml version="1.0" encoding="UTF-8" standalone="no"?>
<!-- Created with Inkscape (http://www.inkscape.org/) -->

<svg
   xmlns:dc="http://purl.org/dc/elements/1.1/"
   xmlns:cc="http://creativecommons.org/ns#"
   xmlns:rdf="http://www.w3.org/1999/02/22-rdf-syntax-ns#"
   xmlns:svg="http://www.w3.org/2000/svg"
   xmlns="http://www.w3.org/2000/svg"
   xmlns:sodipodi="http://sodipodi.sourceforge.net/DTD/sodipodi-0.dtd"
   xmlns:inkscape="http://www.inkscape.org/namespaces/inkscape"
   width="163.4539"
   height="163.50334"
   id="svg7178"
   version="1.1"
   inkscape:version="0.48.2 r9819"
   sodipodi:docname="Modèle Balle Tennis.svg">
  <defs
     id="defs7180">
    <clipPath
       id="clipPath74976"
       clipPathUnits="userSpaceOnUse">
      <path
         inkscape:connector-curvature="0"
         id="path74978"
         d="m 672.682,2.745 22.146,0 0,35.775 -22.146,0 0,-35.775 z" />
    </clipPath>
  </defs>
  <sodipodi:namedview
     id="base"
     pagecolor="#ffffff"
     bordercolor="#666666"
     borderopacity="1.0"
     inkscape:pageopacity="0.0"
     inkscape:pageshadow="2"
     inkscape:zoom="0.7461593"
     inkscape:cx="-67.643742"
     inkscape:cy="-32.360224"
     inkscape:document-units="px"
     inkscape:current-layer="g74974"
     showgrid="false"
     fit-margin-top="5"
     fit-margin-right="5"
     fit-margin-bottom="5"
     fit-margin-left="5"
     inkscape:window-width="1366"
     inkscape:window-height="706"
     inkscape:window-x="-8"
     inkscape:window-y="-8"
     inkscape:window-maximized="1" />
  <metadata
     id="metadata7183">
    <rdf:RDF>
      <cc:Work
         rdf:about="">
        <dc:format>image/svg+xml</dc:format>
        <dc:type
           rdf:resource="http://purl.org/dc/dcmitype/StillImage" />
        <dc:title></dc:title>
      </cc:Work>
    </rdf:RDF>
  </metadata>
  <g
     inkscape:label="Calque 1"
     inkscape:groupmode="layer"
     id="layer1"
     transform="translate(161.55252,-326.48966)">
    <flowRoot
       xml:space="preserve"
       id="flowRoot77037"
       style="font-size:8.5px;font-style:normal;font-variant:normal;font-weight:normal;font-stretch:normal;line-height:125%;letter-spacing:0px;word-spacing:0px;fill:#000000;fill-opacity:1;stroke:none;font-family:Euphemia;-inkscape-font-specification:Euphemia"
       transform="translate(-133.1523,407.38278)"><flowRegion
         id="flowRegion77039"><rect
           id="rect77041"
           width="1570.7102"
           height="1045.3531"
           x="-353.81186"
           y="-367.00168" /></flowRegion><flowPara
         id="flowPara77043"></flowPara></flowRoot>    <g
       transform="matrix(12.68427,0,0,-12.68427,-8756.0674,731.56264)"
       clip-path="url(#clipPath74976)"
       id="g74974">
      <g
         transform="matrix(5.0820047,0,0,5.0820047,-2834.6963,-99.388414)"
         id="g78008">
        <g
           id="g75124"
           transform="translate(693.5742,24.4926)">
          <path
             inkscape:connector-curvature="0"
             d="m 0,0 c -0.044,-0.656 -0.612,-1.151 -1.268,-1.108 -0.656,0.044 -1.152,0.612 -1.107,1.269 0.044,0.655 0.612,1.151 1.267,1.107 C -0.452,1.224 0.044,0.656 0,0"
             style="fill:#e8e000;fill-opacity:1;fill-rule:nonzero;stroke:none"
             id="path75126" />
        </g>
        <g
           id="g78002">
          <g
             transform="translate(692.5967,25.7342)"
             id="g75128">
            <path
               id="path75130"
               style="fill:#ffffff;fill-opacity:1;fill-rule:nonzero;stroke:none"
               d="m 0,0 c 0,0 -0.17,-0.009 -0.255,-0.19 -0.086,-0.182 -0.282,-0.628 -0.342,-0.77 -0.06,-0.142 -0.257,-0.497 -0.416,-0.574 -0.16,-0.076 -0.316,-0.038 -0.349,0.12 0,0 0.175,-0.152 0.341,-0.008 0.153,0.13 0.273,0.353 0.323,0.481 0.049,0.128 0.313,0.733 0.373,0.805 C -0.265,-0.064 -0.145,0.015 0,0"
               inkscape:connector-curvature="0" />
          </g>
          <g
             transform="translate(693.569,24.7077)"
             id="g75132">
            <path
               id="path75134"
               style="fill:#ffffff;fill-opacity:1;fill-rule:nonzero;stroke:none"
               d="M 0,0 C 0,0 -0.16,-0.465 -0.645,-0.807 -1.128,-1.15 -1.35,-1.314 -1.35,-1.314 l 0.109,-0.01 0.636,0.444 C -0.545,-0.836 0.072,-0.435 0,0"
               inkscape:connector-curvature="0" />
          </g>
        </g>
      </g>
    </g>
  </g>
</svg>
